<mxfile host="app.diagrams.net" modified="2023-07-31T02:51:36.856Z" agent="Mozilla/5.0 (Windows NT 10.0; Win64; x64) AppleWebKit/537.36 (KHTML, like Gecko) Chrome/112.0.0.0 Safari/537.36" etag="KciOxlVxKtIPIFdQ4Ihe" version="21.6.5" type="github">
  <diagram name="Page-1" id="55a83fd1-7818-8e21-69c5-c3457e3827bb">
    <mxGraphModel dx="610" dy="325" grid="0" gridSize="10" guides="1" tooltips="1" connect="1" arrows="1" fold="1" page="1" pageScale="1" pageWidth="1100" pageHeight="850" background="none" math="0" shadow="0">
      <root>
        <mxCell id="0" />
        <mxCell id="1" parent="0" />
        <mxCell id="8FrTbTZE2b99i6v4mtXq-2" value="Bilinear Interpolation" style="rounded=1;whiteSpace=wrap;html=1;" parent="1" vertex="1">
          <mxGeometry x="490" y="230" width="138" height="20" as="geometry" />
        </mxCell>
        <mxCell id="VsMMu1A1MDN6GORQWN6R-1" style="edgeStyle=orthogonalEdgeStyle;rounded=0;orthogonalLoop=1;jettySize=auto;html=1;exitX=0.5;exitY=1;exitDx=0;exitDy=0;entryX=0.5;entryY=0;entryDx=0;entryDy=0;" edge="1" parent="1" source="8FrTbTZE2b99i6v4mtXq-6" target="8FrTbTZE2b99i6v4mtXq-17">
          <mxGeometry relative="1" as="geometry" />
        </mxCell>
        <mxCell id="8FrTbTZE2b99i6v4mtXq-6" value="Conv 3x3ï¼Œstride=1" style="rounded=1;whiteSpace=wrap;html=1;" parent="1" vertex="1">
          <mxGeometry x="490" y="250" width="138" height="20" as="geometry" />
        </mxCell>
        <mxCell id="8FrTbTZE2b99i6v4mtXq-17" value="output" style="rounded=1;whiteSpace=wrap;html=1;" parent="1" vertex="1">
          <mxGeometry x="528" y="284" width="62" height="20" as="geometry" />
        </mxCell>
        <mxCell id="8FrTbTZE2b99i6v4mtXq-22" style="edgeStyle=orthogonalEdgeStyle;rounded=0;orthogonalLoop=1;jettySize=auto;html=1;exitX=0.5;exitY=1;exitDx=0;exitDy=0;entryX=0.5;entryY=0;entryDx=0;entryDy=0;" parent="1" source="8FrTbTZE2b99i6v4mtXq-18" target="8FrTbTZE2b99i6v4mtXq-2" edge="1">
          <mxGeometry relative="1" as="geometry" />
        </mxCell>
        <mxCell id="8FrTbTZE2b99i6v4mtXq-18" value="input" style="rounded=1;whiteSpace=wrap;html=1;" parent="1" vertex="1">
          <mxGeometry x="528" y="195" width="62" height="20" as="geometry" />
        </mxCell>
      </root>
    </mxGraphModel>
  </diagram>
</mxfile>
